<?xml version="1.0" encoding="utf-8"?>
<!-- Generator: Adobe Illustrator 20.1.0, SVG Export Plug-In . SVG Version: 6.00 Build 0)  -->
<svg version="1.1" id="Layer_1" xmlns="http://www.w3.org/2000/svg" xmlns:xlink="http://www.w3.org/1999/xlink" x="0px" y="0px"
	 viewBox="0 0 69.8 114" style="enable-background:new 0 0 69.8 114;" xml:space="preserve">
<style type="text/css">
	.st0{opacity:0.5;fill:#EAEBEC;enable-background:new    ;}
	.st1{fill:#69717E;}
	.st2{fill:url(#SVGID_1_);}
	.st3{fill:#FFFFFF;}
	.st4{fill:none;stroke:#EAEBEC;stroke-width:1.7;stroke-miterlimit:10;}
	.st5{fill:#EAEBEC;}
	.st6{fill:url(#SVGID_2_);}
	.st7{fill:url(#SVGID_3_);}
</style>
<g>
	<ellipse class="st0" cx="35.2" cy="108.2" rx="30.4" ry="1.9"/>
	<g>
		<g>
			<polygon class="st1" points="61.8,9.2 23.8,5.1 16.9,62 54.8,66.1 			"/>
			
				<linearGradient id="SVGID_1_" gradientUnits="userSpaceOnUse" x1="36.1846" y1="1251.0721" x2="-20.2064" y2="1209.9131" gradientTransform="matrix(1 0 0 1 0 -1206)">
				<stop  offset="0" style="stop-color:#CBCBCB"/>
				<stop  offset="9.469968e-02" style="stop-color:#D5D6D6"/>
				<stop  offset="0.264" style="stop-color:#E1E2E3"/>
				<stop  offset="0.49" style="stop-color:#E8E9EA"/>
				<stop  offset="1" style="stop-color:#EAEBEC"/>
			</linearGradient>
			<polygon class="st2" points="46.6,10.5 8.7,14.3 14.2,71.2 52.2,67.5 			"/>
			<rect x="15.8" y="18.7" class="st3" width="38.1" height="54.9"/>
			<line class="st4" x1="15.8" y1="23.2" x2="53.9" y2="23.2"/>
			<line class="st4" x1="15.8" y1="38.6" x2="53.9" y2="38.6"/>
			<rect x="18.8" y="28.1" class="st5" width="32.1" height="5.1"/>
		</g>
	</g>
	
		<linearGradient id="SVGID_2_" gradientUnits="userSpaceOnUse" x1="34.95" y1="1297.7539" x2="34.95" y2="1218.1847" gradientTransform="matrix(1 0 0 1 0 -1206)">
		<stop  offset="0" style="stop-color:#CBCBCB"/>
		<stop  offset="9.469968e-02" style="stop-color:#D5D6D6"/>
		<stop  offset="0.264" style="stop-color:#E1E2E3"/>
		<stop  offset="0.49" style="stop-color:#E8E9EA"/>
		<stop  offset="1" style="stop-color:#EAEBEC"/>
	</linearGradient>
	<path class="st6" d="M54.3,50.6H37.4l-10.5-6.2H12.8c-3.4,0-6.2,2.8-6.2,6.2l0,0v35h56.6V59.5C63.2,54.6,59.2,50.6,54.3,50.6z"/>
	
		<linearGradient id="SVGID_3_" gradientUnits="userSpaceOnUse" x1="25.3153" y1="1256.3074" x2="45.9297" y2="1256.3074" gradientTransform="matrix(1 0 0 1 0 -1206)">
		<stop  offset="0" style="stop-color:#00AED4"/>
		<stop  offset="0.1722" style="stop-color:#0AC0D3"/>
		<stop  offset="0.5073" style="stop-color:#1ADED1"/>
		<stop  offset="0.795" style="stop-color:#24F0D0"/>
		<stop  offset="1" style="stop-color:#28F7D0"/>
	</linearGradient>
	<path class="st7" d="M41.3,36.9c-4.5-2.6-10.2-1.1-12.8,3.3L25.7,45l1.6,1l2.8-4.8c2.1-3.6,6.7-4.7,10.2-2.6
		c3.6,2.1,4.7,6.7,2.6,10.2l-7.1,12.1c-1.3,2.2-4.2,3-6.4,1.7s-3-4.2-1.7-6.4L34.9,44c0.5-0.9,1.7-1.2,2.6-0.7s1.2,1.7,0.7,2.6
		L33.4,54l1.6,0.9l4.7-8.1c1-1.8,0.5-4.1-1.3-5.1s-4.1-0.5-5.1,1.3l-7.1,12.1c-1.8,3.1-0.8,7.1,2.3,9c3.1,1.8,7.1,0.8,9-2.3
		l7.1-12.1C47.2,45.2,45.8,39.5,41.3,36.9z"/>
</g>
</svg>
