<?xml version="1.0" encoding="utf-8"?>
<!-- Generator: Adobe Illustrator 22.0.1, SVG Export Plug-In . SVG Version: 6.00 Build 0)  -->
<svg version="1.1" id="Layer_1" xmlns="http://www.w3.org/2000/svg" xmlns:xlink="http://www.w3.org/1999/xlink" x="0px" y="0px"
	 viewBox="0 0 678.4 424.3" style="enable-background:new 0 0 678.4 424.3;" xml:space="preserve">
<style type="text/css">
	.st0{fill:url(#SVGID_1_);}
	.st1{fill:#EDF1F2;}
	.st2{fill:url(#SVGID_2_);}
	.st3{fill:url(#SVGID_3_);}
	.st4{fill:#005099;}
	.st5{fill:url(#SVGID_4_);}
	.st6{fill:#06CBFF;}
	.st7{fill:url(#SVGID_5_);}
	.st8{fill:url(#SVGID_6_);}
	.st9{fill:url(#SVGID_7_);}
	.st10{fill:url(#SVGID_8_);}
	.st11{fill:#002A54;}
	.st12{fill:url(#SVGID_9_);}
	.st13{fill:url(#SVGID_10_);}
	.st14{fill:url(#SVGID_11_);}
	.st15{fill:#0073DE;}
	.st16{fill:url(#SVGID_12_);}
	.st17{fill:url(#SVGID_13_);}
	.st18{fill:url(#SVGID_14_);}
	.st19{fill:#FF7381;}
	.st20{fill:url(#SVGID_15_);}
	.st21{fill:#FFFFFF;}
	.st22{fill:#057CE6;}
	.st23{fill:url(#SVGID_16_);}
	.st24{fill:#FFBAED;}
	.st25{fill:#004685;}
	.st26{fill:none;stroke:#004685;stroke-linecap:round;stroke-linejoin:round;stroke-miterlimit:10;}
	.st27{fill:url(#SVGID_17_);}
	.st28{fill:#FF7379;}
	.st29{fill:none;stroke:url(#SVGID_18_);stroke-width:6;stroke-linecap:round;stroke-linejoin:round;stroke-miterlimit:10;}
	.st30{fill:none;stroke:url(#SVGID_19_);stroke-width:6;stroke-linecap:round;stroke-linejoin:round;stroke-miterlimit:10;}
	.st31{fill:url(#SVGID_20_);}
	.st32{fill:url(#SVGID_21_);}
	.st33{opacity:0.5;fill:#FFFFFF;stroke:url(#SVGID_22_);stroke-width:6;stroke-miterlimit:10;enable-background:new    ;}
	.st34{fill:none;stroke:#D3D2D2;stroke-width:6;stroke-miterlimit:10;}
	.st35{fill:url(#SVGID_23_);}
	.st36{fill:url(#SVGID_24_);}
	.st37{fill:#ADADFF;}
	.st38{fill:#0F467E;}
	.st39{fill:url(#SVGID_25_);}
	.st40{fill:#FFE01B;}
	.st41{fill:#084480;}
</style>
<g>
	
		<linearGradient id="SVGID_1_" gradientUnits="userSpaceOnUse" x1="338.8" y1="-109.025" x2="338.8" y2="-141.0406" gradientTransform="matrix(1 0 0 -1 0 22.6136)">
		<stop  offset="0" style="stop-color:#095097"/>
		<stop  offset="1" style="stop-color:#1273DC"/>
	</linearGradient>
	<polyline class="st0" points="527.7,121.7 149.9,121.7 149.9,204.8 527.7,204.8 527.7,124.6 	"/>
	<ellipse class="st1" cx="343.6" cy="354.3" rx="260" ry="14.8"/>
	
		<linearGradient id="SVGID_2_" gradientUnits="userSpaceOnUse" x1="338.85" y1="-82.6165" x2="338.85" y2="-155.1233" gradientTransform="matrix(1 0 0 -1 0 22.6136)">
		<stop  offset="0" style="stop-color:#06CBFF"/>
		<stop  offset="1" style="stop-color:#0595E8"/>
	</linearGradient>
	<path class="st2" d="M488.8,230.6H188.9V49.4c0-4.2,3.4-7.6,7.6-7.6h284.7c4.2,0,7.6,3.4,7.6,7.6L488.8,230.6L488.8,230.6z"/>
	
		<linearGradient id="SVGID_3_" gradientUnits="userSpaceOnUse" x1="338.85" y1="-181.025" x2="338.85" y2="-66.0206" gradientTransform="matrix(1 0 0 -1 0 22.6136)">
		<stop  offset="0" style="stop-color:#095097"/>
		<stop  offset="1" style="stop-color:#1273DC"/>
	</linearGradient>
	<path class="st3" d="M488.8,230.6H188.9V49.4c0-4.2,3.4-7.6,7.6-7.6h284.7c4.2,0,7.6,3.4,7.6,7.6L488.8,230.6L488.8,230.6z"/>
	<rect x="188.9" y="218" class="st4" width="299.9" height="32.6"/>
	<polygon class="st4" points="431.2,116.4 353.1,194.5 488,196.2 488.8,129.7 	"/>
	<polygon class="st4" points="242.2,143.1 248.2,116.4 315.8,190.9 184.5,190.9 188.9,131 	"/>
	
		<linearGradient id="SVGID_4_" gradientUnits="userSpaceOnUse" x1="365.1" y1="-23.025" x2="365.1" y2="-46.1118" gradientTransform="matrix(1 0 0 -1 0 22.6136)">
		<stop  offset="0" style="stop-color:#095097"/>
		<stop  offset="1" style="stop-color:#1273DC"/>
	</linearGradient>
	<polygon class="st5" points="308.9,41.8 298.5,67.8 431.7,67.8 422.9,41.8 	"/>
	<g>
		<path class="st6" d="M446.6,197.7c11.4,2.2,23.3,2.6,28.9,2.6c2,0,3.8-1.2,4.5-3c10.2-23.9,10.9-56.5,10.8-67.1
			c0-2.1-1.4-4-3.4-4.6c-4.7-1.5-13.8-4.3-24.3-6.3l-4.7-0.9c-10.5-2.2-20-3.1-24.8-3.5c-2.1-0.2-4.1,1-4.9,3
			c-4.2,9.8-16.1,40.1-15.9,66.1c0,2,1.2,3.7,3,4.5c5.1,2.1,16.3,6.4,27.6,8.7L446.6,197.7z"/>
		<g>
			<path class="st6" d="M431.2,116.4c0,0-0.2-13.1-11.5-14.6c-0.1,2.9,0.5,5.2,1.4,7.1c0,0-2,6,2.7,8
				C427.2,118.2,431.2,116.4,431.2,116.4z"/>
			<path class="st6" d="M488,127.7c0,0,5.3-12,16.2-9.1c-1,2.7-2.5,4.6-4.1,6c0,0-0.4,6.3-5.6,6.3C491,131,488,127.7,488,127.7z"/>
		</g>
		<g>
			
				<linearGradient id="SVGID_5_" gradientUnits="userSpaceOnUse" x1="479.2975" y1="-189.8381" x2="483.9641" y2="-95.1714" gradientTransform="matrix(1 0 0 -1 0 22.6136)">
				<stop  offset="0" style="stop-color:#FF96BC"/>
				<stop  offset="1" style="stop-color:#FFC7DB"/>
			</linearGradient>
			<path class="st7" d="M473.9,198c0,0,0.2,13.1,11.5,14.6c0.1-2.9-0.5-5.2-1.4-7.1c0,0,2-6-2.7-8C478,196.2,473.9,198,473.9,198z"
				/>
			<path class="st6" d="M417.2,186.6c0,0-5.3,12-16.2,9.1c1-2.7,2.5-4.6,4.1-6c0,0,0.4-6.3,5.6-6.3
				C414.1,183.4,417.2,186.6,417.2,186.6z"/>
		</g>
	</g>
	<g>
		<path class="st6" d="M232.9,197.7c-11.4,2.2-23.3,2.6-28.9,2.6c-2,0-3.8-1.2-4.5-3c-10.2-23.9-10.9-56.5-10.8-67.1
			c0-2.1,1.4-4,3.4-4.6c4.7-1.5,13.8-4.3,24.3-6.3l4.7-0.9c10.5-2.2,20-3.1,24.8-3.5c2.1-0.2,4.1,1,4.9,3
			c4.2,9.8,16.1,40.1,15.9,66.1c0,2-1.2,3.7-3,4.5c-5.1,2.1-16.3,6.4-27.6,8.7L232.9,197.7z"/>
		<g>
			<path class="st6" d="M248.2,116.4c0,0,0.2-13.1,11.5-14.6c0.1,2.9-0.5,5.2-1.4,7.1c0,0,2,6-2.7,8
				C252.3,118.2,248.2,116.4,248.2,116.4z"/>
			<path class="st6" d="M191.5,127.7c0,0-5.3-12-16.2-9.1c1,2.7,2.5,4.6,4.1,6c0,0,0.4,6.3,5.6,6.3
				C188.5,131,191.5,127.7,191.5,127.7z"/>
		</g>
		<g>
			
				<linearGradient id="SVGID_6_" gradientUnits="userSpaceOnUse" x1="10579.1133" y1="-189.8367" x2="10583.7793" y2="-95.1699" gradientTransform="matrix(-1 0 0 -1 10779.3154 22.6136)">
				<stop  offset="0" style="stop-color:#FF96BC"/>
				<stop  offset="1" style="stop-color:#FFC7DB"/>
			</linearGradient>
			<path class="st8" d="M205.6,198c0,0-0.2,13.1-11.5,14.6c-0.1-2.9,0.5-5.2,1.4-7.1c0,0-2-6,2.7-8C201.5,196.2,205.6,198,205.6,198
				z"/>
			<path class="st6" d="M262.3,186.6c0,0,5.3,12,16.2,9.1c-1-2.7-2.5-4.6-4.1-6c0,0-0.4-6.3-5.6-6.3
				C265.4,183.4,262.3,186.6,262.3,186.6z"/>
		</g>
	</g>
	
		<linearGradient id="SVGID_7_" gradientUnits="userSpaceOnUse" x1="286.9" y1="-225.7024" x2="286.9" y2="-163.7142" gradientTransform="matrix(1 0 0 -1 0 22.6136)">
		<stop  offset="0" style="stop-color:#06CBFF"/>
		<stop  offset="1" style="stop-color:#0595E8"/>
	</linearGradient>
	<path class="st9" d="M184.5,190.9h204.8c5.2,0,9.5,4.2,9.5,9.5v40.7c0,5.2-4.2,9.5-9.5,9.5H184.5c-5.2,0-9.5-4.2-9.5-9.5v-40.7
		C175,195.2,179.3,190.9,184.5,190.9z"/>
	<g>
		<g>
			
				<linearGradient id="SVGID_8_" gradientUnits="userSpaceOnUse" x1="209.0115" y1="-274.5145" x2="199.688" y2="-303.3325" gradientTransform="matrix(1 0 0 -1 0 22.6136)">
				<stop  offset="0" style="stop-color:#032A54"/>
				<stop  offset="1" style="stop-color:#08447F"/>
			</linearGradient>
			<polygon class="st10" points="193.6,300.1 200.3,346 206.5,346 222.5,300.1 			"/>
		</g>
		<g>
			<polygon class="st11" points="193.6,300.1 214.7,322.4 222.5,300.1 			"/>
		</g>
		<g>
			
				<linearGradient id="SVGID_9_" gradientUnits="userSpaceOnUse" x1="166.1984" y1="-273.9368" x2="155.0482" y2="-308.4011" gradientTransform="matrix(1 0 0 -1 0 22.6136)">
				<stop  offset="0" style="stop-color:#032A54"/>
				<stop  offset="1" style="stop-color:#08447F"/>
			</linearGradient>
			<polygon class="st12" points="147.8,300.1 155.8,355 163.1,355 182.3,300.1 			"/>
		</g>
		<g>
			<polygon class="st11" points="147.8,300.1 173,326.8 182.3,300.1 			"/>
		</g>
		<g>
			
				<linearGradient id="SVGID_10_" gradientUnits="userSpaceOnUse" x1="4347.4937" y1="-274.5203" x2="4338.1699" y2="-303.338" gradientTransform="matrix(-1 0 0 -1 4816.7339 22.6136)">
				<stop  offset="0" style="stop-color:#032A54"/>
				<stop  offset="1" style="stop-color:#08447F"/>
			</linearGradient>
			<polygon class="st13" points="484.6,300.1 478,346 471.8,346 455.8,300.1 			"/>
		</g>
		<g>
			<polygon class="st11" points="484.6,300.1 463.6,322.4 455.8,300.1 			"/>
		</g>
		<g>
			
				<linearGradient id="SVGID_11_" gradientUnits="userSpaceOnUse" x1="4304.6353" y1="-273.9279" x2="4293.4854" y2="-308.3922" gradientTransform="matrix(-1 0 0 -1 4816.7339 22.6136)">
				<stop  offset="0" style="stop-color:#032A54"/>
				<stop  offset="1" style="stop-color:#08447F"/>
			</linearGradient>
			<polygon class="st14" points="530.5,300.1 522.5,355 515.1,355 496,300.1 			"/>
		</g>
		<g>
			<polygon class="st11" points="530.5,300.1 505.3,326.8 496,300.1 			"/>
		</g>
	</g>
	<path class="st15" d="M549.9,300.1H127.7c-9.2,0-16.6-7.4-16.6-16.6v-16.2c0-9.2,7.4-16.6,16.6-16.6h422.2
		c9.2,0,16.6,7.4,16.6,16.6v16.2C566.5,292.6,559.1,300.1,549.9,300.1z"/>
	
		<linearGradient id="SVGID_12_" gradientUnits="userSpaceOnUse" x1="149.9" y1="-231.025" x2="149.9" y2="-111.3421" gradientTransform="matrix(1 0 0 -1 0 22.6136)">
		<stop  offset="0" style="stop-color:#095097"/>
		<stop  offset="1" style="stop-color:#1273DC"/>
	</linearGradient>
	<path class="st16" d="M149.9,121.7L149.9,121.7c21.5,0,38.9,17.4,38.9,38.9v80.3c0,5.4-4.4,9.7-9.7,9.7h-58.4
		c-5.4,0-9.7-4.4-9.7-9.7v-80.3C111,139.1,128.4,121.7,149.9,121.7z"/>
	
		<linearGradient id="SVGID_13_" gradientUnits="userSpaceOnUse" x1="527.7498" y1="-231.025" x2="527.7498" y2="-111.3421" gradientTransform="matrix(1 0 0 -1 0 22.6136)">
		<stop  offset="0" style="stop-color:#095097"/>
		<stop  offset="1" style="stop-color:#1273DC"/>
	</linearGradient>
	<path class="st17" d="M527.7,121.7L527.7,121.7c21.5,0,38.9,17.4,38.9,38.9v80.3c0,5.4-4.4,9.7-9.7,9.7h-58.3
		c-5.4,0-9.7-4.4-9.7-9.7v-80.3C488.8,139.1,506.2,121.7,527.7,121.7z"/>
	
		<linearGradient id="SVGID_14_" gradientUnits="userSpaceOnUse" x1="339.2" y1="-276.025" x2="339.2" y2="-197.9673" gradientTransform="matrix(1 0 0 -1 0 22.6136)">
		<stop  offset="0" style="stop-color:#005099"/>
		<stop  offset="1" style="stop-color:#0073DE"/>
	</linearGradient>
	<path class="st18" d="M167.1,190.9h344.2c6.5,0,11.8,5.3,11.8,11.8v36.1c0,6.5-5.3,11.8-11.8,11.8H167.1c-6.5,0-11.8-5.3-11.8-11.8
		v-36.1C155.3,196.2,160.6,190.9,167.1,190.9z"/>
	<path class="st19" d="M304.4,41.8c0,0,1.5-21.6,19.5-24.6c19-15,49.6-13,71.3,0s27.7,24.6,27.7,24.6H304.4z"/>
	<path class="st19" d="M348.2,41.8h-8.5c0.1-0.1,0.2-0.2,0.3-0.3c1.3-1.3,2.3-2.8,2.8-4.5c2-6.6-6.1-12.4-12.6-15.8
		C330.3,21.2,352.4,24.2,348.2,41.8z"/>
	
		<linearGradient id="SVGID_15_" gradientUnits="userSpaceOnUse" x1="396.4743" y1="-9.5122" x2="417.2243" y2="-21.7622" gradientTransform="matrix(1 0 0 -1 0 22.6136)">
		<stop  offset="0" style="stop-color:#FF7381"/>
		<stop  offset="1" style="stop-color:#FF4D5E"/>
	</linearGradient>
	<path class="st20" d="M393.1,23.6c-2.3,5.8-3.6,12-4.2,18.2h34c0,0-5.9-11.3-26.9-24.1C394.9,19.6,393.9,21.6,393.1,23.6z"/>
	<path class="st21" d="M317.7,91.8c-1.3-0.4-2.7,0.3-3.1,1.6l0,0c-0.5,1.6-1.1,3.1-2,4.4c-0.4,0.7-0.9,1.2-1.3,1.7
		c-0.5,0.4-1,0.9-1.5,1.1c-1,0.5-2,0.5-3,0.1c-0.8-0.4-1.6-1-2.3-1.8c-0.9,0.8-1.9,1.7-2.8,2.6c-0.5,0.5-0.9,0.9-1.4,1.4
		c1.2,1.2,2.6,2.3,4.4,3c1.2,0.5,2.5,0.7,3.9,0.6c1.3-0.1,2.6-0.5,3.7-1.1c1.1-0.6,2-1.4,2.8-2.2c0.8-0.9,1.4-1.8,2-2.7
		c1.1-1.9,1.8-3.8,2.3-5.7C319.7,93.5,318.9,92.2,317.7,91.8z"/>
	<path class="st19" d="M379.6,23.3c11.2,3.2,18.4,18.4,18.4,18.4s5.1,16.8,4.1,24.6c-0.4,2.8-6,5.5-7.9-2.6c-4-17.3-14.7-22-14.7-22
		h-1.4c-10.9,0-20.2-7.7-22.3-18.4l0,0"/>
	<path class="st19" d="M379.6,23.3c11.2,3.2,18.4,18.4,18.4,18.4s5.1,16.8,4.1,24.6c-0.4,2.8-6,5.5-7.9-2.6c-4-17.3-14.7-22-14.7-22
		h-1.4c-10.9,0-20.2-7.7-22.3-18.4l0,0C355.8,23.3,379.6,23.3,379.6,23.3z"/>
	<path class="st21" d="M397.6,59.3c-2-0.1-3.3,0.1-4.3,0.9c0.4,1.1,0.7,2.4,1,3.6c1.9,8.1,7.5,5.4,7.9,2.6c0.2-1.8,0.1-4.2-0.2-6.6
		C400.5,59.6,399.1,59.4,397.6,59.3z"/>
	<g>
		<path class="st22" d="M420.2,23.3c0,0,5.3-7,4.3-12c-1.1-5-12.8,2.2-12.8,2.2S415.7,21.1,420.2,23.3z"/>
		
			<linearGradient id="SVGID_16_" gradientUnits="userSpaceOnUse" x1="1158.7621" y1="-1530.0829" x2="1153.5953" y2="-1536.7495" gradientTransform="matrix(0.9419 0.336 0.336 -0.9419 -153.513 -1817.1587)">
			<stop  offset="0" style="stop-color:#FF7381"/>
			<stop  offset="1" style="stop-color:#FF4D5E"/>
		</linearGradient>
		<path class="st23" d="M420.2,23.3c0,0,5.3-7,4.3-12c-1.1-5-12.8,2.2-12.8,2.2S415.7,21.1,420.2,23.3z"/>
		<path class="st24" d="M421.8,13.1c0,0-3.4,0-7.7,3.1C415.4,21.6,421.8,13.1,421.8,13.1z"/>
		<path class="st19" d="M419.1,37.5c-2.8,7.2-12,8.8-22.2,5.2l-1-0.4c-10.1-3.6-16.3-10.7-13.9-18c0.7-2.1,1.9-4.6,3.5-7
			c4-5.7,10.8-10.6,20-7.3l4.3,1.5C422.9,16.3,421.9,30.3,419.1,37.5z"/>
		
			<ellipse transform="matrix(0.3157 -0.9489 0.9489 0.3157 251.2898 392.0691)" class="st25" cx="397.5" cy="21.8" rx="3" ry="1.8"/>
		
			<ellipse transform="matrix(0.3157 -0.9489 0.9489 0.3157 256.8724 411.5611)" class="st25" cx="413.8" cy="27.7" rx="3" ry="1.8"/>
		<path class="st26" d="M404.6,29.6c0,0-1.2,2.1-4.1,2.8c-2.6,0.6-4.8-2-3.9-4.5l0,0"/>
		<path class="st26" d="M404.4,29.5c0,0-0.4,2.1,1.1,4.3c1.6,2.4,5.4,1.9,6.4-0.9l0,0"/>
		<path class="st25" d="M401.3,26.2c0,0,2,3,3.3,3.4c1.3,0.3,4.2-1.2,4.2-1.2"/>
		<path class="st26" d="M399.7,35.1c0,0,0.3,1.5,2,2.1c1.6,0.6,2.9-0.3,2.9-0.3"/>
		<path class="st22" d="M389.9,12.5c0,0,0.3-8.8,4.3-12s8.5,9.8,8.5,9.8S394.9,13.6,389.9,12.5z"/>
		<path class="st22" d="M389.9,12.5c0,0,0.3-8.8,4.3-12s8.5,9.8,8.5,9.8S394.9,13.6,389.9,12.5z"/>
		<path class="st22" d="M406.8,10.5c-3.9,7.7-17.1,8.3-21.3,6.8c4-5.7,10.8-10.6,20-7.3L406.8,10.5z"/>
		<path class="st24" d="M395.3,3.6c0,0,2.6,2.1,4,7.3C394.7,14.2,395.3,3.6,395.3,3.6z"/>
		<path class="st22" d="M389.9,12.5c0,0,0.3-8.8,4.3-12s8.5,9.8,8.5,9.8S394.9,13.6,389.9,12.5z"/>
		<path class="st22" d="M389.9,12.5c0,0,0.3-8.8,4.3-12s8.5,9.8,8.5,9.8S394.9,13.6,389.9,12.5z"/>
		<path class="st24" d="M395.3,3.6c0,0,2.6,2.1,4,7.3C394.7,14.2,395.3,3.6,395.3,3.6z"/>
	</g>
	
		<linearGradient id="SVGID_17_" gradientUnits="userSpaceOnUse" x1="378.8904" y1="-13.4864" x2="399.7" y2="-13.4864" gradientTransform="matrix(1 0 0 -1 0 22.6136)">
		<stop  offset="0" style="stop-color:#FF7381"/>
		<stop  offset="1" style="stop-color:#FF4D5E"/>
	</linearGradient>
	<path class="st27" d="M399.7,47.9c-26.2-3.5-21.8-21.5-17.7-23.6c-2.4,7.3,3.7,14.4,13.9,18l1,0.4c0.5,0.2,1,0.4,1.6,0.5
		C398.8,44.3,399.2,46,399.7,47.9z"/>
	<path class="st28" d="M330.3,21.2c6.4,3.4,14.6,9.2,12.6,15.8c-3.3,10.6-23.5,12.1-32.2,9.2c0,0,5.6,15.3,0.8,18l-8.3-20.3
		c0,0,15.3-5.4,15.2-11.4"/>
	<path class="st24" d="M348.2,41.8h-7.6l-0.6-0.3c1.3-1.3,2.3-2.8,2.8-4.5c2-6.6-6.1-12.4-12.6-15.8
		C330.3,21.2,352.4,24.2,348.2,41.8z"/>
	<ellipse class="st24" cx="337.7" cy="15.6" rx="1.6" ry="1.6"/>
	<ellipse class="st24" cx="341.9" cy="18.7" rx="1.6" ry="1.6"/>
	<ellipse class="st24" cx="343.6" cy="12.5" rx="1.6" ry="1.6"/>
	
		<ellipse transform="matrix(0.6257 -0.7801 0.7801 0.6257 118.3946 277.3816)" class="st24" cx="348.2" cy="15.3" rx="1.3" ry="1.3"/>
	<g>
		
			<linearGradient id="SVGID_18_" gradientUnits="userSpaceOnUse" x1="952.9518" y1="-1821.009" x2="958.9518" y2="-1821.009" gradientTransform="matrix(0.9471 0.3209 0.3209 -0.9471 -55.0919 -1678.733)">
			<stop  offset="0" style="stop-color:#002A54"/>
			<stop  offset="1" style="stop-color:#084480"/>
		</linearGradient>
		<line class="st29" x1="267.4" y1="348.2" x2="264.4" y2="357.2"/>
		<path class="st19" d="M284.3,354.6l-3.7-4c0,0-4.6-22.7-17.4-19.6s-2.8,18.4,3.3,22.9c6.9,5.1,16.6,9.1,16.6,9.1"/>
		
			<linearGradient id="SVGID_19_" gradientUnits="userSpaceOnUse" x1="952.9518" y1="-1798.0978" x2="958.9518" y2="-1798.0978" gradientTransform="matrix(0.9471 0.3209 0.3209 -0.9471 -55.0919 -1678.733)">
			<stop  offset="0" style="stop-color:#002A54"/>
			<stop  offset="1" style="stop-color:#084480"/>
		</linearGradient>
		<line class="st30" x1="275.8" y1="323.5" x2="270.7" y2="338.5"/>
		<ellipse class="st1" cx="453" cy="404.5" rx="225.4" ry="10"/>
		<path class="st19" d="M370.8,385.4l-5.2,1c0,0-20.8-7.8-24.8,4.1c-4,12,13.5,11.6,20.3,9c7.7-3,15.8-8.8,15.8-8.8"/>
		
			<linearGradient id="SVGID_20_" gradientUnits="userSpaceOnUse" x1="785.3535" y1="-1313.7321" x2="771.3516" y2="-1345.8197" gradientTransform="matrix(0.9785 0.2062 0.2062 -0.9785 -101.8494 -1104.7455)">
			<stop  offset="0" style="stop-color:#FFBB1B"/>
			<stop  offset="1" style="stop-color:#FFE01B"/>
		</linearGradient>
		<path class="st31" d="M416.5,288.6l-10.8-2.3c0,0,1,58.2-40.1,100.2l5,9c0,0,38.5-13,63-70.8S416.5,288.6,416.5,288.6z"/>
		<g>
			
				<linearGradient id="SVGID_21_" gradientUnits="userSpaceOnUse" x1="503.9209" y1="-272.2081" x2="492.7708" y2="-306.6722" gradientTransform="matrix(1 0 0 -1 0 22.6136)">
				<stop  offset="0" style="stop-color:#005099"/>
				<stop  offset="1" style="stop-color:#0073DE"/>
			</linearGradient>
			<polygon class="st32" points="480.7,296.8 488.7,351.7 508.1,351.7 515.2,296.8 			"/>
		</g>
		
			<linearGradient id="SVGID_22_" gradientUnits="userSpaceOnUse" x1="-140.0736" y1="-1970.6525" x2="-88.5737" y2="-1970.6525" gradientTransform="matrix(-0.9652 0.2611 0.2611 0.9652 687.0041 2233.9834)">
			<stop  offset="0" style="stop-color:#005099"/>
			<stop  offset="1" style="stop-color:#0073DE"/>
		</linearGradient>
		
			<ellipse transform="matrix(0.3209 -0.9471 0.9471 0.3209 -93.7561 473.2052)" class="st33" cx="283.1" cy="302" rx="22.8" ry="22.8"/>
		
			<ellipse transform="matrix(0.3209 -0.9471 0.9471 0.3209 -93.7561 473.2052)" class="st34" cx="283.1" cy="302" rx="22.8" ry="22.8"/>
		<g>
			<path class="st19" d="M331.3,259.3c-4.2-2.7-29-10.2-29-10.2l-11.9,31.6c0,0,19.5,30,35.8,34.3c10.8,2.9,23.5-19.4,23.5-19.4
				l16.5,14.5c0,0,15.4-28.6,16.2-26.2L331.3,259.3z"/>
			
				<linearGradient id="SVGID_23_" gradientUnits="userSpaceOnUse" x1="329.7566" y1="-261.4794" x2="370.8566" y2="-261.4794" gradientTransform="matrix(1 0 0 -1 0 22.6136)">
				<stop  offset="0" style="stop-color:#FF7381"/>
				<stop  offset="1" style="stop-color:#FF4D5E"/>
			</linearGradient>
			<path class="st35" d="M329.8,295.4c0,0,21.1,3.9,41.1-17.1l-13.4-5.8L329.8,295.4z"/>
			
				<linearGradient id="SVGID_24_" gradientUnits="userSpaceOnUse" x1="294.1506" y1="-256.0364" x2="317.5434" y2="-256.0364" gradientTransform="matrix(1 0 0 -1 0 22.6136)">
				<stop  offset="0" style="stop-color:#FF7381"/>
				<stop  offset="1" style="stop-color:#FF4D5E"/>
			</linearGradient>
			<path class="st36" d="M294.2,285.6c0,0,14.2-1.3,21.6-6.7c7.4-5.4-11.3-7.2-11.3-7.2L294.2,285.6z"/>
			<path class="st37" d="M329.8,295.4l-24.5-17.3c-8.5,5.2-29.5,23.7-36.8,11.5s24.8-54.7,43.8-58.8s46.1,26.5,47.3,42.3
				C359.7,273,345.7,295.1,329.8,295.4z"/>
			<path class="st38" d="M329.8,295.4l-24.5-17.3c-8.5,5.2-29.5,23.7-36.8,11.5s24.8-54.7,43.8-58.8s46.1,26.5,47.3,42.3
				C359.7,273,345.7,295.1,329.8,295.4z"/>
			<path class="st19" d="M320.3,290.3c-0.4-0.2-2.9-18.6,2.8-16.4s8,25.6,8,25.6L320.3,290.3z"/>
		</g>
		<path class="st6" d="M586.1,380.2l6.7,8.2c0,0,9.6,11.6,25.9,5.5l-28.3-20.1L586.1,380.2z"/>
		
			<linearGradient id="SVGID_25_" gradientUnits="userSpaceOnUse" x1="459.9568" y1="-326.461" x2="925.4997" y2="-352.2835" gradientTransform="matrix(1 0 0 -1 0 22.6136)">
			<stop  offset="0" style="stop-color:#002A54"/>
			<stop  offset="1" style="stop-color:#084480"/>
		</linearGradient>
		<path class="st39" d="M594,389.2l-7.9-9c0,0-63.5-7.6-88.8-16.2l12.8-54.3c-0.4-0.1-0.9-0.1-1.3-0.2c-0.2,0-0.4,0-0.6-0.1
			c-0.4,0-0.8-0.1-1.2-0.1c-0.7-0.1-1.4-0.2-2-0.3c-0.7-0.1-1.5-0.2-2.2-0.3c-1-0.2-2-0.3-2.9-0.5c-1-0.2-1.9-0.3-2.9-0.4
			c-0.5-0.1-1.1-0.2-1.6-0.2c-3.2-0.4-6.5-0.7-9.7-1c-2.6,9.5-5.9,18.7-9.7,24.9c-12.3,20-17.6,38.2-15.3,49.7
			c1.3,7,5.4,11.4,12.3,12.3c1.4,0.3,2.9,0.4,4.5,0.4c11,0,17.5,0.1,28.2,0c4.4,0,8.8-0.1,13-0.2h15.6l-0.6-0.5
			C568.8,391.9,594,389.2,594,389.2z"/>
		<path class="st40" d="M366.7,307.2c0,0,6.5-17.2,2.3-30.5l4.8-0.8c39.7-6.6,80.4-7.9,120.2-1.4l-9,68.5l-82-22.6
			c0,0-43.3,66.9-73.3,68.9c-26.6,1.8-53.6-29-53.6-29l5-11c0,0,35.5,24.8,48.3,11.9C342.2,348.4,366.7,307.2,366.7,307.2z"/>
		<path class="st41" d="M506.1,402.7c-13.3,0-22-7.8-21.1-59.7c0.4-25.4,9-68.5,9-68.5c16,1.7,29.3,7.9,37.6,20.3
			c16.7,24.7-5.5,54.6-15.6,70.3c-7.3,11.3,98.7,23.9,98.7,23.9l7.9,9c0,0-39.4,4.3-88.4,4.7C523.7,402.8,517.2,402.7,506.1,402.7z"
			/>
		<path class="st19" d="M614.8,389l6.7,8.2c0,0,9.6,11.6,25.9,5.5l-28.3-20.1L614.8,389z"/>
		<path class="st6" d="M614.8,389l6.7,8.2c0,0,9.6,11.6,25.9,5.5l-28.3-20.1L614.8,389z"/>
	</g>
</g>
<path class="st19" d="M305.7,35c-5.7,15.8-20.8,47.8-5.4,67.9l4.2-4c0,0-6-9.9-4.2-23.1c1.5-10.8,8-31.2,8-31.2L305.7,35z"/>
</svg>
